<svg xmlns="http://www.w3.org/2000/svg" width="46.877" height="50" viewBox="0 0 46.877 50">
  <path id="Path_278" data-name="Path 278" d="M37.5-31.25a6.246,6.246,0,0,0,6.25-6.25,6.246,6.246,0,0,0-6.25-6.25,6.246,6.246,0,0,0-6.25,6.25A6.245,6.245,0,0,0,37.5-31.25Zm0-10.937A4.692,4.692,0,0,1,42.188-37.5,4.691,4.691,0,0,1,37.5-32.812,4.691,4.691,0,0,1,32.813-37.5,4.691,4.691,0,0,1,37.5-42.187ZM25-20.312a5.466,5.466,0,0,0,5.469-5.469A5.52,5.52,0,0,0,25-31.25a5.517,5.517,0,0,0-5.469,5.469A5.46,5.46,0,0,0,25-20.312Zm0-9.375a3.91,3.91,0,0,1,3.906,3.906A3.908,3.908,0,0,1,25-21.875a3.905,3.905,0,0,1-3.906-3.906A3.905,3.905,0,0,1,25-29.687ZM32.813-6.25V-12.5a4.687,4.687,0,0,0-4.687-4.687h-6.25A4.687,4.687,0,0,0,17.188-12.5v6.25a3.125,3.125,0,0,0,3.125,3.125v6.25A3.125,3.125,0,0,0,23.438,6.25h3.125a3.125,3.125,0,0,0,3.125-3.125v-6.25A3.122,3.122,0,0,0,32.813-6.25ZM28.125,3.125a1.564,1.564,0,0,1-1.562,1.563H23.438a1.567,1.567,0,0,1-1.562-1.562v-6.25h6.25ZM31.25-6.25a1.564,1.564,0,0,1-1.562,1.563H20.313A1.567,1.567,0,0,1,18.75-6.25V-12.5a3.129,3.129,0,0,1,3.125-3.125h6.25A3.129,3.129,0,0,1,31.25-12.5Zm-18.75-25a6.246,6.246,0,0,0,6.25-6.25,6.245,6.245,0,0,0-6.25-6.25A6.245,6.245,0,0,0,6.25-37.5a6.246,6.246,0,0,0,6.25,6.25Zm0-10.937A4.692,4.692,0,0,1,17.188-37.5,4.691,4.691,0,0,1,12.5-32.812,4.691,4.691,0,0,1,7.813-37.5,4.691,4.691,0,0,1,12.5-42.187ZM49.941-8.242,44.9-25.859a3.117,3.117,0,0,0-3-2.266H33.1a3.092,3.092,0,0,0-.883.146,7.765,7.765,0,0,1,.453,1.562,1.351,1.351,0,0,1,.423-.145h8.8a1.569,1.569,0,0,1,1.5,1.133L48.35-7.812H35.156V3.125a1.565,1.565,0,0,1-1.562,1.563,1.54,1.54,0,0,1-.638-.143l-1.1,1.1a3,3,0,0,0,1.734.609,3.128,3.128,0,0,0,3.125-3.125V-6.25h1.563V3.125a3.125,3.125,0,0,0,6.25,0V-6.25h3.905A1.567,1.567,0,0,0,49.941-8.242ZM42.969,3.125a1.563,1.563,0,0,1-3.125,0V-6.25h3.125ZM16.406,4.688a1.565,1.565,0,0,1-1.562-1.562V-10.937H6.25A1.564,1.564,0,0,1,4.688-12.5v-9.375a4.692,4.692,0,0,1,4.688-4.687h6.25a4.648,4.648,0,0,1,1.688.327,7.7,7.7,0,0,1,.4-1.506,6.131,6.131,0,0,0-2.085-.383H9.375a6.253,6.253,0,0,0-6.25,6.25V-12.5A3.081,3.081,0,0,0,5.469-9.533V3.125a3.125,3.125,0,1,0,6.25,0v-12.5h1.563v12.5A3.128,3.128,0,0,0,16.406,6.25a2.99,2.99,0,0,0,1.735-.609l-1.1-1.1a1.641,1.641,0,0,1-.639.143Zm-6.25-1.562a1.562,1.562,0,1,1-3.125,0v-12.5h3.125Z" transform="translate(-3.125 43.75)" fill="#d3bc5c"/>
</svg>
