<svg xmlns="http://www.w3.org/2000/svg" width="37.5" height="50" viewBox="0 0 37.5 50">
  <path id="Path_276" data-name="Path 276" d="M13.281-21.094a2.338,2.338,0,0,1,2.344,2.344v3.125a2.338,2.338,0,0,1-2.344,2.344H10.156a2.341,2.341,0,0,1-2.344-2.344V-18.75a2.341,2.341,0,0,1,2.344-2.344ZM9.375-15.625a.782.782,0,0,0,.781.781h3.125a.784.784,0,0,0,.781-.781V-18.75a.784.784,0,0,0-.781-.781H10.156a.782.782,0,0,0-.781.781Zm12.5-3.125a2.338,2.338,0,0,1,2.344-2.344h3.125a2.338,2.338,0,0,1,2.344,2.344v3.125a2.338,2.338,0,0,1-2.344,2.344H24.219a2.338,2.338,0,0,1-2.344-2.344Zm2.344-.781a.784.784,0,0,0-.781.781v3.125a.784.784,0,0,0,.781.781h3.125a.784.784,0,0,0,.781-.781V-18.75a.784.784,0,0,0-.781-.781ZM13.281-33.594a2.338,2.338,0,0,1,2.344,2.344v3.125a2.338,2.338,0,0,1-2.344,2.344H10.156a2.341,2.341,0,0,1-2.344-2.344V-31.25a2.341,2.341,0,0,1,2.344-2.344ZM9.375-28.125a.782.782,0,0,0,.781.781h3.125a.784.784,0,0,0,.781-.781V-31.25a.784.784,0,0,0-.781-.781H10.156a.782.782,0,0,0-.781.781Zm12.5-3.125a2.338,2.338,0,0,1,2.344-2.344h3.125a2.338,2.338,0,0,1,2.344,2.344v3.125a2.338,2.338,0,0,1-2.344,2.344H24.219a2.338,2.338,0,0,1-2.344-2.344Zm2.344-.781a.784.784,0,0,0-.781.781v3.125a.784.784,0,0,0,.781.781h3.125a.784.784,0,0,0,.781-.781V-31.25a.784.784,0,0,0-.781-.781ZM4.688,6.25A4.688,4.688,0,0,1,0,1.563V-39.062A4.687,4.687,0,0,1,4.688-43.75H32.813A4.688,4.688,0,0,1,37.5-39.062V1.563A4.689,4.689,0,0,1,32.813,6.25ZM1.563-39.062V1.563A3.124,3.124,0,0,0,4.688,4.688h9.375V-3.125A4.689,4.689,0,0,1,18.75-7.812a4.689,4.689,0,0,1,4.688,4.688V4.688h9.375a3.122,3.122,0,0,0,3.125-3.125V-39.062a3.124,3.124,0,0,0-3.125-3.125H4.688A3.125,3.125,0,0,0,1.563-39.062ZM15.625,4.688h6.25V-3.125A3.122,3.122,0,0,0,18.75-6.25a3.122,3.122,0,0,0-3.125,3.125Z" transform="translate(0 43.75)" fill="#d3bc5c"/>
</svg>
