<svg xmlns="http://www.w3.org/2000/svg" width="35" height="35" viewBox="0 0 35 35">
  <path id="Path_282" data-name="Path 282" d="M16.085-7.978a1.085,1.085,0,0,1-1.545,0l-3.828-3.828a1.085,1.085,0,0,1,0-1.545,1.085,1.085,0,0,1,1.545,0l3.056,3.056L22.2-17.179a1.085,1.085,0,0,1,1.545,0,1.085,1.085,0,0,1,0,1.545Zm7.369-19.528A7.238,7.238,0,0,1,29.873-25.5a7.246,7.246,0,0,1,2.01,6.42A7.129,7.129,0,0,1,35-13.187a7.27,7.27,0,0,1-3.117,6.016,7.242,7.242,0,0,1-2.01,6.419,7.242,7.242,0,0,1-6.419,2.01A7.241,7.241,0,0,1,17.5,4.375a7.158,7.158,0,0,1-5.954-3.117,7.246,7.246,0,0,1-6.42-2.01A7.238,7.238,0,0,1,3.119-7.171,7.263,7.263,0,0,1,0-13.187a7.123,7.123,0,0,1,3.119-5.893A7.241,7.241,0,0,1,5.126-25.5a7.241,7.241,0,0,1,6.42-2.006,7.123,7.123,0,0,1,5.893-3.119A7.263,7.263,0,0,1,23.454-27.506Zm-10.849,2.56-.868-.265a5.051,5.051,0,0,0-5.065,1.258,5.051,5.051,0,0,0-1.258,5.065l.265.868-.8.424a5.031,5.031,0,0,0-2.693,4.409A5.151,5.151,0,0,0,4.881-8.654l.8.424-.265.868A5.056,5.056,0,0,0,6.673-2.3a5.057,5.057,0,0,0,5.065,1.258l.868-.267.424.8A5.05,5.05,0,0,0,17.5,2.188,5.123,5.123,0,0,0,21.971-.506l.424-.8.868.267A5.062,5.062,0,0,0,28.328-2.3a5.062,5.062,0,0,0,1.258-5.065l-.267-.868.8-.424a5.147,5.147,0,0,0,2.693-4.532A5.027,5.027,0,0,0,30.119-17.6l-.8-.424.267-.868a5.058,5.058,0,0,0-1.258-5.065,5.052,5.052,0,0,0-5.065-1.258l-.868.265-.424-.8A5.185,5.185,0,0,0,17.5-28.5a5.11,5.11,0,0,0-4.471,2.755Z" transform="translate(0 30.625)" fill="#d3bc5c"/>
</svg>
