<svg xmlns="http://www.w3.org/2000/svg" width="43.75" height="49.997" viewBox="0 0 43.75 49.997">
  <path id="Path_279" data-name="Path 279" d="M21.875-18.75a12.5,12.5,0,0,0,12.5-12.5,12.5,12.5,0,0,0-12.5-12.5,12.5,12.5,0,0,0-12.5,12.5A12.5,12.5,0,0,0,21.875-18.75Zm0-23.437A10.95,10.95,0,0,1,32.813-31.25,10.95,10.95,0,0,1,21.875-20.312,10.947,10.947,0,0,1,10.938-31.25,10.947,10.947,0,0,1,21.875-42.187Zm4.951,28.125h-9.9A16.926,16.926,0,0,0,0,2.861,3.386,3.386,0,0,0,3.385,6.247H40.367A3.379,3.379,0,0,0,43.75,2.861,16.925,16.925,0,0,0,26.826-14.062ZM40.361,4.688H3.386A1.827,1.827,0,0,1,1.562,2.861,15.382,15.382,0,0,1,16.924-12.5h9.893A15.385,15.385,0,0,1,42.188,2.861,1.83,1.83,0,0,1,40.361,4.688Z" transform="translate(0 43.75)" fill="#d3bc5c"/>
</svg>
