<svg xmlns="http://www.w3.org/2000/svg" width="363.336" height="91" viewBox="0 0 363.336 91">
  <g id="Group_187" data-name="Group 187" transform="translate(-268 -277)">
    <path id="Path_218" data-name="Path 218" d="M26.688-48A24.133,24.133,0,0,0,2.4-23.712C2.4-10.176,13.152-.1,26.688-.1,32.16-.1,36.768-1.44,40.9-4.9A5.056,5.056,0,0,0,45.5-.1a4.639,4.639,0,0,0,4.8-4.8V-23.712C50.3-37.248,40.224-48,26.688-48Zm0,38.5c-8.064,0-14.88-6.144-14.88-14.208a15.082,15.082,0,0,1,14.88-14.88c8.064,0,14.208,6.816,14.208,14.88A13.939,13.939,0,0,1,26.688-9.5ZM80.16-48.192a24.111,24.111,0,0,0-24.1,24.1V-4.8a4.733,4.733,0,0,0,4.7,4.8,4.753,4.753,0,0,0,4.8-4.8V-24.1A14.586,14.586,0,0,1,80.16-38.688,14.586,14.586,0,0,1,94.752-24.1V-4.8a4.733,4.733,0,0,0,4.7,4.8,4.753,4.753,0,0,0,4.8-4.8V-24.1A24.111,24.111,0,0,0,80.16-48.192ZM114.528.1a4.733,4.733,0,0,0,4.7-4.8V-43.392a4.712,4.712,0,0,0-4.7-4.7,4.733,4.733,0,0,0-4.8,4.7V-4.7A4.753,4.753,0,0,0,114.528.1Zm78.24-28.9a19.277,19.277,0,0,0-19.3-19.2,19,19,0,0,0-14.5,6.624A19,19,0,0,0,144.48-48a19.277,19.277,0,0,0-19.3,19.2V-4.608a4.753,4.753,0,0,0,4.8,4.8,4.733,4.733,0,0,0,4.7-4.8V-28.8a9.751,9.751,0,0,1,9.792-9.7,9.669,9.669,0,0,1,9.7,9.7V-4.608a4.814,4.814,0,0,0,4.8,4.8,4.733,4.733,0,0,0,4.7-4.8V-28.8a9.751,9.751,0,0,1,9.792-9.7,9.751,9.751,0,0,1,9.792,9.7V-4.608a4.733,4.733,0,0,0,4.7,4.8,4.814,4.814,0,0,0,4.8-4.8V-27.936a.865.865,0,0,0-.1-.48C192.768-28.512,192.768-28.608,192.768-28.8ZM222.24,0a24.111,24.111,0,0,0,24.1-24.1,24.05,24.05,0,0,0-24.1-24.1,24.111,24.111,0,0,0-24.1,24.1A24.173,24.173,0,0,0,222.24,0Zm0-38.688A14.586,14.586,0,0,1,236.832-24.1,14.647,14.647,0,0,1,222.24-9.5,14.647,14.647,0,0,1,207.648-24.1,14.586,14.586,0,0,1,222.24-38.688Z" transform="translate(385 346)" fill="#0c2929"/>
    <g id="Group_124" data-name="Group 124" transform="translate(42 7)">
      <path id="Rectangle_2476" data-name="Rectangle 2476" d="M45.5,0h.989A44.511,44.511,0,0,1,91,44.511V91a0,0,0,0,1,0,0H45.5A45.5,45.5,0,0,1,0,45.5v0A45.5,45.5,0,0,1,45.5,0Z" transform="translate(226 270)" fill="#d3bc5c"/>
      <path id="Path_219" data-name="Path 219" d="M26.688-48A24.133,24.133,0,0,0,2.4-23.712C2.4-10.176,13.152-.1,26.688-.1,32.16-.1,36.768-1.44,40.9-4.9A5.056,5.056,0,0,0,45.5-.1a4.639,4.639,0,0,0,4.8-4.8V-23.712C50.3-37.248,40.224-48,26.688-48Zm0,38.5c-8.064,0-14.88-6.144-14.88-14.208a15.082,15.082,0,0,1,14.88-14.88c8.064,0,14.208,6.816,14.208,14.88A13.939,13.939,0,0,1,26.688-9.5Z" transform="translate(245.148 339.548)" fill="#fff"/>
    </g>
  </g>
</svg>
