<svg xmlns="http://www.w3.org/2000/svg" width="229.897" height="58" viewBox="0 0 229.897 58">
  <g id="Group_172" data-name="Group 172" transform="translate(-268 -277)">
    <path id="Path_218" data-name="Path 218" d="M17.768-48.071A15.27,15.27,0,0,0,2.4-32.7c0,8.565,6.8,14.943,15.368,14.943a13.244,13.244,0,0,0,8.99-3.037,3.2,3.2,0,0,0,2.916,3.037A2.936,2.936,0,0,0,32.711-20.8V-32.7C32.711-41.267,26.333-48.071,17.768-48.071Zm0,24.358A9.182,9.182,0,0,1,8.353-32.7a9.543,9.543,0,0,1,9.415-9.415,9.182,9.182,0,0,1,8.99,9.415A8.82,8.82,0,0,1,17.768-23.713ZM51.6-48.192A15.256,15.256,0,0,0,36.355-32.946v12.209A3,3,0,0,0,39.332-17.7a3.008,3.008,0,0,0,3.037-3.037V-32.946A9.229,9.229,0,0,1,51.6-42.178a9.229,9.229,0,0,1,9.233,9.233v12.209A3,3,0,0,0,63.811-17.7a3.008,3.008,0,0,0,3.037-3.037V-32.946A15.256,15.256,0,0,0,51.6-48.192ZM73.348-17.638a3,3,0,0,0,2.976-3.037V-45.155a2.981,2.981,0,0,0-2.976-2.976,3,3,0,0,0-3.037,2.976v24.479A3.008,3.008,0,0,0,73.348-17.638Zm49.505-18.284a12.2,12.2,0,0,0-12.209-12.149,12.019,12.019,0,0,0-9.172,4.191A12.019,12.019,0,0,0,92.3-48.071,12.2,12.2,0,0,0,80.09-35.922v15.307a3.008,3.008,0,0,0,3.037,3.037A3,3,0,0,0,86.1-20.615V-35.922a6.17,6.17,0,0,1,6.2-6.135,6.118,6.118,0,0,1,6.135,6.135v15.307a3.046,3.046,0,0,0,3.037,3.037,3,3,0,0,0,2.976-3.037V-35.922a6.17,6.17,0,0,1,6.2-6.135,6.17,6.17,0,0,1,6.2,6.135v15.307a3,3,0,0,0,2.976,3.037,3.046,3.046,0,0,0,3.037-3.037V-35.375a.548.548,0,0,0-.061-.3C122.853-35.74,122.853-35.8,122.853-35.922ZM141.5-17.7a15.256,15.256,0,0,0,15.246-15.246A15.217,15.217,0,0,0,141.5-48.192a15.256,15.256,0,0,0-15.246,15.246A15.3,15.3,0,0,0,141.5-17.7Zm0-24.479a9.229,9.229,0,0,1,9.233,9.233,9.268,9.268,0,0,1-9.233,9.233,9.268,9.268,0,0,1-9.233-9.233A9.229,9.229,0,0,1,141.5-42.178Z" transform="translate(341.149 338.358)" fill="#fff"/>
    <g id="Group_124" data-name="Group 124" transform="translate(268 277)">
      <path id="Rectangle_2476" data-name="Rectangle 2476" d="M29,0h.63A28.37,28.37,0,0,1,58,28.37V58a0,0,0,0,1,0,0H29A29,29,0,0,1,0,29v0A29,29,0,0,1,29,0Z" fill="#d3bc5c"/>
      <path id="Path_219" data-name="Path 219" d="M17.768-48A15.27,15.27,0,0,0,2.4-32.632c0,8.565,6.8,14.943,15.368,14.943a13.244,13.244,0,0,0,8.99-3.037,3.2,3.2,0,0,0,2.916,3.037,2.936,2.936,0,0,0,3.037-3.037V-32.632C32.711-41.2,26.333-48,17.768-48Zm0,24.358a9.182,9.182,0,0,1-9.415-8.99,9.543,9.543,0,0,1,9.415-9.415,9.182,9.182,0,0,1,8.99,9.415A8.82,8.82,0,0,1,17.768-23.642Z" transform="translate(11.234 61.634)" fill="#0c2929"/>
    </g>
  </g>
</svg>
