<svg xmlns="http://www.w3.org/2000/svg" width="18.566" height="18.002" viewBox="0 0 18.566 18.002">
  <path id="Path_274" data-name="Path 274" d="M13.4-10.466l5.052.745a1.123,1.123,0,0,1,.9.759,1.13,1.13,0,0,1-.278,1.153L15.416-4.215,16.281.939A1.126,1.126,0,0,1,14.643,2.12L10.129-.288,5.618,2.12A1.133,1.133,0,0,1,4.43,2.039a1.119,1.119,0,0,1-.45-1.1l.865-5.154L1.181-7.808A1.13,1.13,0,0,1,.9-8.961a1.118,1.118,0,0,1,.9-.759l5.048-.745L9.12-15.118a1.121,1.121,0,0,1,1.009-.633,1.122,1.122,0,0,1,1.012.633Z" transform="translate(-0.847 15.751)" fill="#f1d45b" opacity="0.8"/>
</svg>
